<?xml version="1.0" encoding="UTF-8"?>
<svg width="24px" height="24px" stroke-width="1.5" viewBox="0 0 24 24" fill="none" xmlns="http://www.w3.org/2000/svg" color="#0ea5e9">
  <path d="M15 4V2m0 2v2m0-2h-4.5M3 10v9a2 2 0 002 2h14a2 2 0 002-2v-9H3zM3 10V6a2 2 0 012-2h14a2 2 0 012 2v4H3z" stroke="#0ea5e9" stroke-width="1.5" stroke-linecap="round" stroke-linejoin="round"></path>
  <path d="M7 2v4M7.2 15.8l2.3 2.3" stroke="#0ea5e9" stroke-width="1.5" stroke-linecap="round" stroke-linejoin="round"></path>
  <path d="M7.2 18.1l2.3-2.3" stroke="#0ea5e9" stroke-width="1.5" stroke-linecap="round" stroke-linejoin="round"></path>
  <path d="M17.2 15.8l2.3 2.3" stroke="#0ea5e9" stroke-width="1.5" stroke-linecap="round" stroke-linejoin="round"></path>
  <path d="M17.2 18.1l2.3-2.3" stroke="#0ea5e9" stroke-width="1.5" stroke-linecap="round" stroke-linejoin="round"></path>
</svg>